<?xml version="1.0" encoding="utf-8"?>
<!-- Generator: Adobe Illustrator 18.1.1, SVG Export Plug-In . SVG Version: 6.00 Build 0)  -->
<svg version="1.1" id="Layer_1" xmlns="http://www.w3.org/2000/svg" xmlns:xlink="http://www.w3.org/1999/xlink" x="0px" y="0px"
	 viewBox="9.5 -0.4 60 60" enable-background="new 9.5 -0.4 60 60" xml:space="preserve">
<g>
	<g>
		<path fill="#333333" d="M34.3,40.9c-1.1,0-2.2-0.3-3.2-0.9c-0.2-0.1-0.5-0.3-0.7-0.5c-0.2-0.2-0.4-0.3-0.5-0.5
			c-0.1-0.1-0.7-1.2-0.8-1.2c-0.1,0-0.2,0-0.3-0.1c-1.1-0.2-2.3-0.8-3.1-1.7c-0.2-0.2-0.4-0.4-0.6-0.7L19.7,46
			c-0.3,0.6,0.2,1.2,0.8,1.1l6.8-0.8l3.5,6c0.3,0.5,1.1,0.5,1.4,0l5.4-10.7c-0.6-0.2-1.2-0.5-1.7-0.9C35.3,40.8,34.8,40.9,34.3,40.9
			z"/>
		<path fill="#333333" d="M54,35.5c-0.2,0.2-0.4,0.5-0.6,0.7c-0.9,0.9-2,1.5-3.1,1.7c-0.1,0-0.2,0-0.3,0c-0.1,0-0.7,1-0.8,1.2
			c-0.3,0.3-0.5,0.5-0.9,0.7c-0.1,0.1-0.2,0.2-0.3,0.2c-0.9,0.6-2.1,0.9-3.2,0.9c-0.5,0-1-0.1-1.5-0.2c-0.5,0.4-1.1,0.7-1.7,0.9
			l5.4,10.7c0.3,0.6,1.1,0.6,1.4,0l3.5-6l6.8,0.8c0.6,0.1,1.1-0.6,0.8-1.1L54,35.5z"/>
		<path fill="#333333" d="M49.7,29c0.4-0.6,0.8-1.3,1-1.9c0.6-1.5,1-3.1,1-4.7c0-1.6-0.3-3.2-1-4.7c-0.6-1.4-1.5-2.8-2.6-3.9
			c-1.1-1.1-2.4-2-3.9-2.6c-1.2-0.5-2.4-0.8-3.7-0.9c-0.4,0-0.8,0-1.1,0c-1.6,0-3.2,0.3-4.7,1c-1.4,0.6-2.8,1.5-3.9,2.6
			c-1.1,1.1-2,2.4-2.6,3.9c-0.6,1.5-1,3.1-1,4.7c0,1.6,0.3,3.2,1,4.7c0.3,0.7,0.6,1.3,1,1.9c0.5,0.7,1,1.3,1.6,1.9
			c1.1,1.1,2.4,2,3.9,2.6c1.3,0.6,2.7,0.9,4.1,0.9c0.5,0,1,0,1.4,0c1.4-0.1,2.8-0.4,4.1-0.9c1.4-0.6,2.8-1.5,3.9-2.6
			C48.8,30.4,49.3,29.7,49.7,29z M40.5,15.8c0.4-1.5,1.8-2.4,2.9-2.1c1.2,0.3,1.8,1.8,1.4,3.3c-0.4,1.5-1.8,2.4-2.9,2.1
			C40.7,18.8,40.1,17.3,40.5,15.8z M35.6,13.7c1.2-0.3,2.5,0.6,2.9,2.1c0.4,1.5-0.2,3-1.4,3.3c-1.2,0.3-2.5-0.6-2.9-2.1
			C33.8,15.6,34.4,14.1,35.6,13.7z M30.9,22.4c-0.6-1.4-0.1-3,1-3.5s2.6,0.3,3.2,1.8c0.6,1.4,0.1,3-1,3.5
			C32.9,24.6,31.5,23.8,30.9,22.4z M42.5,29.5c-1.8-0.5-3.9-0.4-5.7-0.1c-0.1,0-0.2,0-0.3,0.1c-1,0.3-3.2-0.2-2.7-2.2
			c0.4-2,2.4-1.9,2.9-4.7c0.2-0.8,0.5-1.6,1.2-2.1c0.7-0.5,1.6-0.6,2.4-0.4c0.6,0.2,1.1,0.5,1.5,1c0.3,0.4,0.5,0.9,0.6,1.4
			c0.5,2.7,2.5,2.6,2.9,4.7C45.7,29.3,43.5,29.8,42.5,29.5z M45,24.2c-1.1-0.5-1.6-2-1-3.5c0.6-1.4,2-2.2,3.2-1.8
			c1.1,0.5,1.6,2,1,3.5C47.5,23.8,46.1,24.6,45,24.2z"/>
		<path fill="#333333" d="M43.1,38.9c0.2,0,0.3,0,0.5,0.1c1.8,0.6,4.1-0.3,4.9-2c0.2-0.5,0.7-0.8,1.2-0.8c1.9-0.1,3.6-1.8,3.7-3.7
			c0-0.5,0.3-0.9,0.8-1.2c1.7-0.8,2.6-3.1,2-4.9c-0.2-0.5-0.1-1,0.3-1.4c1.3-1.4,1.3-3.9,0-5.3c-0.3-0.4-0.4-0.9-0.3-1.4
			c0.6-1.8-0.3-4.1-2-4.9c-0.5-0.2-0.8-0.7-0.8-1.2c0-0.9-0.4-1.8-1.2-2.5c-0.7-0.7-1.7-1.2-2.5-1.2c-0.5,0-0.9-0.3-1.2-0.8
			c-0.4-0.8-1.1-1.5-2.1-1.9c-0.6-0.2-1.1-0.3-1.6-0.3c-0.4,0-0.8,0.1-1.2,0.2c-0.2,0.1-0.3,0.1-0.5,0.1c-0.3,0-0.7-0.1-0.9-0.4
			c-0.6-0.6-1.6-0.9-2.6-0.9c0,0-0.1,0-0.1,0c-1.1,0-2,0.4-2.6,0.9c-0.3,0.2-0.6,0.4-0.9,0.4c-0.2,0-0.3,0-0.5-0.1
			c-0.4-0.1-0.8-0.2-1.2-0.2c-0.5,0-1.1,0.1-1.6,0.3c-1,0.4-1.7,1.1-2.1,1.9c-0.2,0.5-0.7,0.8-1.2,0.8c-0.8,0-1.8,0.5-2.5,1.2
			c-0.8,0.8-1.2,1.7-1.2,2.5c0,0.5-0.3,1-0.8,1.2c-1.7,0.8-2.7,3.1-2,4.9c0.2,0.5,0.1,1-0.3,1.4c-1.3,1.4-1.3,3.9,0,5.3
			c0.3,0.4,0.5,0.9,0.3,1.4c-0.6,1.8,0.3,4.1,2,4.9c0.5,0.2,0.8,0.7,0.8,1.2c0.1,1.9,1.9,3.6,3.7,3.7c0.5,0,1,0.3,1.2,0.8
			c0.1,0.1,0.1,0.2,0.2,0.3c0,0,0.1,0.1,0.1,0.1c1,1.4,3,2.1,4.6,1.5c0.2-0.1,0.3-0.1,0.5-0.1c0.3,0,0.7,0.1,0.9,0.3
			c0.7,0.6,1.7,0.9,2.7,0.9c1,0,2-0.3,2.7-0.9C42.4,39,42.8,38.9,43.1,38.9z M39.6,36.3c-1.9,0-3.8-0.4-5.5-1.1
			c-1.7-0.7-3.2-1.7-4.4-3c-0.7-0.7-1.3-1.4-1.8-2.2c-0.5-0.7-0.9-1.4-1.2-2.2c-0.7-1.7-1.1-3.5-1.1-5.4s0.4-3.7,1.1-5.4
			c0.7-1.7,1.7-3.2,3-4.4c1.3-1.3,2.8-2.3,4.4-3c1.2-0.5,2.4-0.8,3.7-1c0.6-0.1,1.2-0.1,1.8-0.1c1.9,0,3.7,0.4,5.4,1.1
			c1.7,0.7,3.2,1.7,4.4,3c1.3,1.3,2.3,2.8,3,4.4c0.7,1.7,1.1,3.5,1.1,5.4c0,1.9-0.4,3.7-1.1,5.4c-0.3,0.8-0.7,1.5-1.2,2.2
			c-0.5,0.8-1.1,1.5-1.8,2.2c-1.3,1.3-2.8,2.3-4.4,3c-1.5,0.6-3.1,1-4.7,1.1C40.1,36.3,39.8,36.3,39.6,36.3z"/>
	</g>
</g>
</svg>
