<?xml version="1.0" encoding="utf-8"?>
<!-- Generator: Adobe Illustrator 18.1.1, SVG Export Plug-In . SVG Version: 6.00 Build 0)  -->
<svg version="1.1" id="Layer_1" xmlns="http://www.w3.org/2000/svg" xmlns:xlink="http://www.w3.org/1999/xlink" x="0px" y="0px"
	 viewBox="9.5 -0.4 60 60" enable-background="new 9.5 -0.4 60 60" xml:space="preserve">
<g>
	<g>
		<g>
			<defs>
				<rect id="SVGID_1_" x="10.6" y="3.7" width="57.8" height="51.8"/>
			</defs>
			<clipPath id="SVGID_2_">
				<use xlink:href="#SVGID_1_"  overflow="visible"/>
			</clipPath>
		</g>
	</g>
</g>
<g>
	<g>
		<defs>
			<rect id="SVGID_3_" x="17.3" y="8.8" width="44.5" height="45.8"/>
		</defs>
		<clipPath id="SVGID_4_">
			<use xlink:href="#SVGID_3_"  overflow="visible"/>
		</clipPath>
		<path clip-path="url(#SVGID_4_)" fill="#333333" d="M52.5,42.5c1.9,3,2.8,4.5,2.8,6.2c0,3.2-2.4,4.8-5.6,4.8c-1.4,0-2.4,0-4.7-1.2
			c0,0-1.5-1.4-5-1.2c-3.6-0.1-5.1,1.3-5.1,1.3c-2.3,1.2-3.2,1.2-4.6,1.2c-3.2,0-5.6-1.6-5.6-4.8c0-1.6,0.9-3.2,2.8-6.2
			c0,0,3.6-5.9,6.6-8.7c2.2-2,5.5-2,5.5-2h1v0c0,0,3.4,0,5.5,2C48.8,36.7,52.5,42.5,52.5,42.5L52.5,42.5z M32,27.9
			c3.4,0,6.1-4.3,6.1-9.6c0-5.3-2.7-9.6-6.1-9.6c-3.4,0-6.1,4.3-6.1,9.6C25.8,23.6,28.6,27.9,32,27.9L32,27.9z M26.1,37.1
			c2.5-1.2,3.1-5.2,1.3-9.1c-1.8-3.9-5.3-6.1-7.8-5c-2.5,1.2-3.1,5.2-1.3,9.1C20.1,36,23.6,38.3,26.1,37.1L26.1,37.1z M46.2,27.9
			c3.4,0,6.1-4.3,6.1-9.6c0-5.3-2.7-9.6-6.1-9.6c-3.4,0-6.1,4.3-6.1,9.6C40.1,23.6,42.8,27.9,46.2,27.9L46.2,27.9z M58.6,23
			c-2.5-1.2-6,1.1-7.8,5c-1.8,3.9-1.2,8,1.3,9.1c2.5,1.2,6-1.1,7.8-5C61.6,28.3,61.1,24.2,58.6,23L58.6,23z M58.6,23"/>
	</g>
</g>
</svg>
