<?xml version="1.0" encoding="utf-8"?>
<!-- Generator: Adobe Illustrator 18.1.1, SVG Export Plug-In . SVG Version: 6.00 Build 0)  -->
<svg version="1.1" id="Layer_1" xmlns="http://www.w3.org/2000/svg" xmlns:xlink="http://www.w3.org/1999/xlink" x="0px" y="0px"
	 viewBox="9.5 -0.4 60 60" enable-background="new 9.5 -0.4 60 60" xml:space="preserve">
<g>
	<g>
		<g>
			<defs>
				<rect id="SVGID_1_" x="10.6" y="3.7" width="57.8" height="51.8"/>
			</defs>
			<clipPath id="SVGID_2_">
				<use xlink:href="#SVGID_1_"  overflow="visible"/>
			</clipPath>
		</g>
	</g>
</g>
<g>
	<g>
		<defs>
			<rect id="SVGID_3_" x="17.3" y="8.8" width="44.5" height="45.8"/>
		</defs>
		<clipPath id="SVGID_4_">
			<use xlink:href="#SVGID_3_"  overflow="visible"/>
		</clipPath>
	</g>
</g>
<g>
	<defs>
		<rect id="SVGID_5_" x="15.5" y="10.8" width="48" height="39"/>
	</defs>
	<clipPath id="SVGID_6_">
		<use xlink:href="#SVGID_5_"  overflow="visible"/>
	</clipPath>
	<path clip-path="url(#SVGID_6_)" fill="#333333" d="M47.9,27.3c1-1.3,2.8-1.5,4.1-0.6c1.3,1,1.6,2.8,0.7,4.2c0,0.1-0.1,0.1-0.2,0.2
		l0.4,0.3c2.9-4,2-9.7-1.9-12.8l0.3-0.4c0.2-0.2,0.1-0.5-0.1-0.7c-0.2-0.2-0.5-0.1-0.7,0.1L50.2,18c-4.2-2.7-9.8-1.7-12.7,2.3
		l0.3,0.2c0-0.1,0.1-0.1,0.1-0.2c1-1.3,2.8-1.6,4.2-0.7c1.3,1,1.7,2.8,0.7,4.2c0,0.1-0.1,0.1-0.2,0.2l0.1,0.1c0-0.1,0.1-0.1,0.1-0.2
		c1-1.3,2.8-1.6,4.2-0.7c0.1,0,0.1,0.1,0.1,0.1l-6.6,9.2c-0.6,0.8-1.7,1-2.5,0.4c-0.1,0-0.1-0.1-0.2-0.1c0.9-0.8,1.2-2.6-0.1-3.5
		c-1.8-1.4-3.4-3-4.8-4.8c0.9-1.4,1-3.2-0.3-4.6c-1.3-1.2-3.8-1.5-5,0c-0.9,1.1-1.6,2.1-2.3,3.2c-0.4-2.1-1-4.1-1.3-2.5
		c-0.5,2.8-3.6,1.8-3.6,1.8l2.9,3.3c-2.2,1.4-8.8,6.2-7.9,12.9l8.4,0.8v7.9c0,2.7,4.1,2.7,4.1,0v-7.5l4.7,0.4c0,0,0.3-7.3-2.5-11.1
		c0.1-0.3,0.3-0.7,0.4-1c1.5,1.7,3.2,3.3,5,4.8c0.5,0.4,1,0.5,1.5,0.4c0.1,0.1,0.3,0.3,0.4,0.4c1.1,0.8,2.8,0.6,3.6-0.6l6.5-9.1
		C48.5,24.9,48.6,26.2,47.9,27.3L47.9,27.3z M47.9,27.3"/>
</g>
<path fill="#333333" d="M37.8,14.7c0,2.2-1.8,3.9-3.9,3.9c-2.2,0-3.9-1.8-3.9-3.9c0-2.2,1.8-3.9,3.9-3.9
	C36,10.8,37.8,12.5,37.8,14.7L37.8,14.7z M37.8,14.7"/>
<path fill="#333333" d="M57.3,45.7c-1.2,0.9-2-0.6-2-0.6L52,41.8c-0.1,0-0.3,0-0.4,0c-1.5,0-2.8-1.1-2.8-1.1l0.3-0.3
	c0.1,0.1,1.2,1,2.5,1L51.2,41c-0.6-5.3-4.6-3.5-4.6-3.5v1l-1.4,0.6c-2.6,0.5,0,1.9,0,1.9c3.2-0.4,3.1,3.1,3.1,3.1l-2.3,4.4h1L50,45
	c0,0-2,3.5,0.3,3.5h4.4C58.5,47,58.7,43.1,57.3,45.7L57.3,45.7z M57.3,45.7"/>
<path fill="#333333" d="M58.5,20.7c0.5,0.3,1.1,0.1,1.3-0.4c0.3-0.5-0.2-1.6-0.2-1.6s-1.2,0.2-1.5,0.7C57.9,19.8,58,20.4,58.5,20.7
	L58.5,20.7z M58.5,20.7"/>
<path fill="#333333" d="M54.2,18.4c0.5,0.3,1.1,0.1,1.3-0.4c0.3-0.5-0.2-1.6-0.2-1.6s-1.2,0.2-1.5,0.7
	C53.6,17.6,53.7,18.1,54.2,18.4L54.2,18.4z M54.2,18.4"/>
<path fill="#333333" d="M43.6,14.6c0.5,0.3,1.1,0.1,1.3-0.4c0.3-0.5-0.2-1.6-0.2-1.6s-1.2,0.2-1.5,0.7C43,13.7,43.2,14.3,43.6,14.6
	L43.6,14.6z M43.6,14.6"/>
<path fill="#333333" d="M56.6,25.3c0.5,0.3,1.1,0.1,1.3-0.4c0.3-0.5-0.2-1.6-0.2-1.6s-1.2,0.2-1.5,0.7C56,24.4,56.1,25,56.6,25.3
	L56.6,25.3z M56.6,25.3"/>
<path fill="#333333" d="M62.5,22.2c0,0-1.2,0.2-1.5,0.7c-0.3,0.5-0.1,1.1,0.4,1.3c0.5,0.3,1.1,0.1,1.3-0.4
	C62.9,23.4,62.5,22.2,62.5,22.2L62.5,22.2z M62.5,22.2"/>
<path fill="#333333" d="M58.1,28.4c-0.3,0.5-0.1,1.1,0.4,1.3c0.5,0.3,1.1,0.1,1.3-0.4c0.3-0.5-0.2-1.6-0.2-1.6S58.4,28,58.1,28.4
	L58.1,28.4z M58.1,28.4"/>
<path fill="#333333" d="M61.7,15.3c0.3-0.5-0.2-1.6-0.2-1.6s-1.2,0.2-1.5,0.7c-0.3,0.5-0.1,1.1,0.4,1.3
	C60.8,15.9,61.4,15.7,61.7,15.3L61.7,15.3z M61.7,15.3"/>
<path fill="#333333" d="M56.6,14.6c0.5,0.3,1.1,0.1,1.3-0.4c0.3-0.5-0.2-1.6-0.2-1.6s-1.2,0.2-1.5,0.7C56,13.7,56.1,14.3,56.6,14.6
	L56.6,14.6z M56.6,14.6"/>
<path fill="#333333" d="M50.6,13.5c0.5,0.3,1.1,0.1,1.3-0.4c0.3-0.5-0.2-1.6-0.2-1.6s-1.2,0.2-1.5,0.7C50,12.6,50.2,13.2,50.6,13.5
	L50.6,13.5z M50.6,13.5"/>
</svg>
