<?xml version="1.0" encoding="utf-8"?>
<!-- Generator: Adobe Illustrator 18.1.1, SVG Export Plug-In . SVG Version: 6.00 Build 0)  -->
<svg version="1.1" id="Layer_1" xmlns="http://www.w3.org/2000/svg" xmlns:xlink="http://www.w3.org/1999/xlink" x="0px" y="0px"
	 viewBox="9.5 -0.4 60 60" enable-background="new 9.5 -0.4 60 60" xml:space="preserve">
<g>
	<g>
		<g>
			<g>
				<defs>
					<rect id="SVGID_1_" x="13.6" y="7.1" width="50.4" height="45.1"/>
				</defs>
				<clipPath id="SVGID_2_">
					<use xlink:href="#SVGID_1_"  overflow="visible"/>
				</clipPath>
				<path clip-path="url(#SVGID_2_)" fill="#333333" d="M63.6,29.7L41,7.7c-1.7-1.7-3.1,0-3.1,0L15.3,29.6c0,0-1.8,1.7,0,3.7
					c1.8,2,5.5-2.4,5.7-2.8l-0.1,18.7c0,0-0.3,3.1,3.1,3.1h7.8c1,0,1.8-1,1.8-2V34.9c0,0,0-1.7,1.7-1.7h8.5c1.7,0,1.9,1.7,1.9,1.7
					v15.3c0,1,1,2,1.9,2h7.3c3.3,0,3.1-3.1,3.1-3.1l-0.1-18.5c0.3,0.3,3.8,4.7,5.8,2.8C65.4,31.4,63.6,29.7,63.6,29.7L63.6,29.7z
					 M40,21.2c0.2-0.9,1-1.4,1.5-1.2c0.5,0.2,0.9,1,0.6,1.8c-0.2,0.9-1,1.4-1.5,1.2C40.1,22.7,39.8,21.9,40,21.2L40,21.2z M37.9,20
					c0.5-0.2,1.2,0.4,1.5,1.2c0.3,0.9,0,1.7-0.5,1.8c-0.5,0.2-1.2-0.4-1.5-1.2C37.2,20.9,37.4,20,37.9,20L37.9,20z M37.1,25
					c-0.5,0.2-1.2-0.3-1.4-1.2c-0.2-0.9,0-1.7,0.4-1.8c0.5-0.2,1.2,0.3,1.4,1.2C37.9,24,37.5,24.7,37.1,25L37.1,25z M40.9,27.3
					c0,0-0.5-0.5-1-0.5h-0.1c-0.4,0-1,0.6-1,0.6s-1.4,0.9-1.4-0.8c0-2.7,2.3-2.8,2.3-2.8h0.1c0,0,2.3,0.1,2.3,2.8
					C42.1,28.2,40.9,27.3,40.9,27.3L40.9,27.3z M44,23.8c-0.2,0.8-0.9,1.3-1.4,1c-0.5-0.2-0.8-1-0.5-1.7c0.2-0.8,0.9-1.3,1.4-1
					S44.3,23.1,44,23.8L44,23.8z"/>
			</g>
		</g>
	</g>
</g>
</svg>
